<?xml version="1.0" encoding="UTF-8" standalone="no"?>
<!-- Created with Inkscape (http://www.inkscape.org/) -->

<svg
   width="122.5999mm"
   height="124.87066mm"
   viewBox="0 0 122.5999 124.87066"
   version="1.1"
   id="svg1"
   xml:space="preserve"
   sodipodi:docname="pidy-iso.svg"
   inkscape:version="1.4.3 (1:1.4.3+202512261034+0d15f75042)"
   xmlns:inkscape="http://www.inkscape.org/namespaces/inkscape"
   xmlns:sodipodi="http://sodipodi.sourceforge.net/DTD/sodipodi-0.dtd"
   xmlns="http://www.w3.org/2000/svg"
   xmlns:svg="http://www.w3.org/2000/svg"><sodipodi:namedview
     id="namedview1"
     pagecolor="#ffffff"
     bordercolor="#000000"
     borderopacity="0.25"
     inkscape:showpageshadow="2"
     inkscape:pageopacity="0.0"
     inkscape:pagecheckerboard="0"
     inkscape:deskcolor="#d1d1d1"
     inkscape:document-units="mm"
     inkscape:zoom="2.2758226"
     inkscape:cx="259.68632"
     inkscape:cy="242.76936"
     inkscape:window-width="1920"
     inkscape:window-height="970"
     inkscape:window-x="0"
     inkscape:window-y="0"
     inkscape:window-maximized="1"
     inkscape:current-layer="svg1" /><defs
     id="defs1" /><rect
     style="fill:#f9f9f9;fill-opacity:1;stroke-width:6.175;stroke-linecap:square;stroke-linejoin:bevel;paint-order:stroke fill markers"
     id="rect1"
     width="69.445908"
     height="81.157684"
     x="19.299692"
     y="19.959513" /><path
     style="fill:#0f172a;fill-opacity:1"
     d="m 55.085278,124.73542 c -3.204335,-0.32405 -7.672057,-1.22984 -10.583332,-2.14568 -8.473802,-2.66571 -13.47048,-5.1931 -19.919878,-10.07575 C 15.347533,105.5228 7.4614582,94.809924 3.6983002,84.144344 c -4.923412,-13.95399 -4.931242,-28.8286 -0.02237,-42.5022 C 7.0680412,32.193461 12.325149,24.112675 19.698417,17.01372 27.607675,9.3987146 36.425581,4.4050446 46.750905,1.6936186 52.281413,0.24130964 54.444015,-0.00369236 61.699862,4.1644014e-5 68.415814,0.00354164 69.676134,0.12894964 74.725984,1.2966556 c 12.77686,2.954464 24.43842,10.3687104 33.284616,21.1618564 5.25288,6.40897 10.34353,16.343391 12.314,24.030792 1.54763,6.03774 2.48617,13.66941 2.23474,18.17159 -0.70494,12.62298 -3.69845,22.18907 -10.05456,32.13048 -3.95357,6.183646 -8.80167,11.376446 -15.352576,16.444116 -3.64215,2.81751 -10.40884,6.40497 -15.34401,8.13485 -7.1124,2.49304 -11.77924,3.33912 -19.18229,3.47764 -2.983177,0.0558 -6.376458,0.005 -7.540626,-0.11256 z m 16.933336,-22.6249 c 5.48154,-1.26793 8.55074,-2.847516 12.14671,-6.251406 3.22048,-3.04845 5.34296,-6.40321 6.51414,-10.29613 1.31113,-4.35811 0.50273,-6.89007 -2.45513,-7.68968 -2.28687,-0.61822 -4.54429,1.01566 -5.3813,3.89489 -1.42271,4.89393 -5.73883,9.00874 -11.2213,10.6979 -1.6611,0.51179 -2.54471,0.60845 -5.42396,0.5933 -3.07601,-0.0162 -3.64933,-0.0954 -5.423955,-0.74964 -1.091406,-0.40235 -3.038546,-1.43013 -4.326978,-2.28395 -2.793357,-1.85111 -3.642308,-1.96993 -5.528502,-0.77374 -1.4667,0.93015 -2.143395,2.10349 -2.144992,3.71925 -0.0019,1.88424 0.707521,2.99957 3.01253,4.73645 2.585546,1.94826 4.947513,3.085926 8.326484,4.010536 2.293143,0.62748 3.157233,0.72635 6.482293,0.7417 2.39623,0.0111 4.43241,-0.12013 5.42396,-0.34948 z M 40.53483,91.264554 c 0.790621,-0.46334 1.465609,-1.16231 2.004384,-2.0756 l 0.812333,-1.37702 -0.148805,-5.29166 c -0.08184,-2.91042 -0.227942,-6.51206 -0.324665,-8.00365 -0.20305,-3.13129 -0.238049,-3.09675 2.092982,-2.06585 2.410744,1.06614 4.389102,1.48679 7.732969,1.64423 3.764931,0.17726 6.517599,-0.26166 9.545016,-1.52197 3.87975,-1.61515 7.54931,-4.58645 9.87666,-7.99728 1.35917,-1.99192 3.09015,-5.90024 3.77073,-8.51382 0.53614,-2.05885 0.61847,-2.99021 0.60812,-6.87916 -0.0102,-3.82464 -0.10414,-4.85436 -0.62778,-6.87917 -2.19844,-8.50103 -8.21578,-14.953367 -16.425871,-17.613337 -1.785364,-0.578436 -2.435467,-0.642635 -6.482291,-0.640144 -3.89703,0.0024 -4.780687,0.08401 -6.614583,0.610921 -6.939131,1.993721 -12.970843,7.456955 -15.826928,14.335268 -1.468978,3.537742 -1.843273,5.585402 -1.967155,10.761742 -0.107735,4.50162 0.365496,15.0523 1.000728,22.31118 1.401957,16.02035 1.489037,16.49138 3.392347,18.34992 1.921477,1.87627 5.199131,2.24174 7.581809,0.8454 z m 9.242389,-30.27494 c -2.517625,-0.65348 -5.332972,-3.00719 -6.728262,-5.62502 -3.691708,-6.92636 0.202803,-15.818814 7.617574,-17.393445 1.998682,-0.424449 3.023046,-0.372462 4.860993,0.246698 2.986638,1.006125 5.504369,3.172207 6.90182,5.937837 0.63101,1.24883 1.25579,4.01359 1.24547,5.51148 -0.0315,4.56441 -2.74389,8.95979 -6.605161,10.70336 -1.14786,0.51832 -1.986082,0.6753 -3.96875,0.74324 -1.382447,0.0474 -2.878105,-0.008 -3.323684,-0.12415 z m 57.531821,14.7551 c 1.49385,-0.52076 2.17979,-2.91239 1.24466,-4.3396 -0.58443,-0.89196 -2.297,-1.71713 -3.56374,-1.71713 -0.57677,0 -1.62331,-0.11246 -2.32564,-0.24989 -5.485216,-1.07342 -6.849506,-0.95423 -7.618126,0.6655 -0.37764,0.79583 -0.38175,0.97991 -0.0368,1.64698 0.47098,0.91077 1.99486,1.59793 7.145126,3.22194 3.70846,1.16938 3.92298,1.20152 5.15452,0.7722 z m -5.90622,-13.43724 c 5.97868,-2.08028 7.87994,-2.81178 8.69327,-3.34469 1.47369,-0.9656 1.47525,-3.91059 0.002,-4.58166 -1.45964,-0.66505 -2.58754,-0.37576 -9.07543,2.32772 -6.844156,2.85193 -8.684586,4.61578 -6.791496,6.50887 0.98449,0.98449 2.15157,0.83635 7.171236,-0.91024 z m -8.637916,-7.37002 c 0.95612,-0.8935 5.51204,-7.23979 6.16389,-8.58617 0.76532,-1.58072 0.62695,-2.50197 -0.55302,-3.68193 -1.10898,-1.10899 -1.74853,-1.24726 -2.93382,-0.63433 -0.93936,0.48576 -1.34936,1.06315 -3.49822,4.92638 -2.91896,5.2477 -3.33485,6.93536 -2.01266,8.16717 0.80876,0.75347 1.90193,0.67974 2.83383,-0.19112 z"
     id="path3" /><path
     style="fill:#facc15;fill-opacity:1"
     d="m 60.112361,101.7183 c -3.378971,-0.92461 -5.740938,-2.062276 -8.326484,-4.010536 -2.305009,-1.73688 -3.014392,-2.85221 -3.01253,-4.73645 0.0016,-1.61576 0.678292,-2.7891 2.144992,-3.71925 1.886194,-1.19619 2.735145,-1.07737 5.528502,0.77374 1.288432,0.85382 3.235572,1.8816 4.326978,2.28395 1.774625,0.65423 2.347945,0.73346 5.423955,0.74964 2.87925,0.0152 3.76286,-0.0815 5.42396,-0.5933 5.48247,-1.68916 9.79859,-5.80397 11.2213,-10.6979 0.83701,-2.87923 3.09443,-4.51311 5.3813,-3.89489 2.95786,0.79961 3.76626,3.33157 2.45513,7.68968 -1.17118,3.89292 -3.29366,7.24768 -6.51414,10.29613 -4.93615,4.672476 -10.16041,6.635106 -17.57067,6.600886 -3.32506,-0.0153 -4.18915,-0.11422 -6.482293,-0.7417 z M 105.09152,75.854184 c -0.80744,-0.18678 -5.196326,-1.5856 -6.508886,-2.0745 -2.61721,-0.97486 -3.19887,-1.30516 -3.57324,-2.02911 -0.34495,-0.66707 -0.34084,-0.85115 0.0368,-1.64698 0.76862,-1.61973 2.13291,-1.73892 7.618116,-0.6655 0.70233,0.13743 1.74888,0.24989 2.32564,0.24989 1.26674,0 2.97931,0.82517 3.56374,1.71713 0.93514,1.42721 0.24919,3.81884 -1.24465,4.3396 -0.86391,0.30115 -1.29656,0.32251 -2.21752,0.10947 z M 94.231584,63.217714 c -1.89309,-1.89309 -0.0527,-3.65694 6.791496,-6.50887 6.48789,-2.70348 7.61579,-2.99277 9.07543,-2.32772 1.47283,0.67107 1.47127,3.61606 -0.002,4.58166 -1.51657,0.99369 -12.835776,4.90436 -14.195406,4.90436 -0.72984,0 -1.20427,-0.18459 -1.6691,-0.64943 z m -4.30051,-8.08914 c -1.32219,-1.23181 -0.9063,-2.91947 2.01266,-8.16717 2.14886,-3.86323 2.55886,-4.44062 3.49822,-4.92638 1.18529,-0.61293 1.82484,-0.47466 2.93382,0.63433 1.17997,1.17996 1.31834,2.10121 0.55302,3.68193 -0.65185,1.34638 -5.20777,7.69267 -6.16389,8.58617 -0.9319,0.87086 -2.02507,0.94459 -2.83383,0.19112 z"
     id="path4" /><path
     style="fill:#14b8a6;fill-opacity:1"
     d="m 105.08382,75.871086 c -0.80744,-0.18678 -5.196333,-1.5856 -6.508893,-2.0745 -2.61721,-0.97486 -3.19887,-1.30516 -3.57324,-2.02911 -0.344951,-0.66707 -0.340841,-0.85115 0.0368,-1.64698 0.76862,-1.61973 2.13291,-1.73892 7.618123,-0.6655 0.70233,0.13743 1.74888,0.24989 2.32563,0.24989 1.26674,0 2.97931,0.82517 3.56374,1.71713 0.93514,1.42721 0.24919,3.81884 -1.24465,4.3396 -0.86391,0.30115 -1.29656,0.32251 -2.21751,0.10947 z M 94.223876,63.234616 c -1.89309,-1.89309 -0.0527,-3.65694 6.791494,-6.50887 6.48789,-2.70348 7.6158,-2.99277 9.07543,-2.32772 1.47283,0.67107 1.47127,3.61606 -0.002,4.58166 -1.51657,0.99369 -12.835773,4.90436 -14.195403,4.90436 -0.72984,0 -1.204271,-0.18459 -1.669101,-0.64943 z m -4.30051,-8.08914 c -1.32219,-1.23181 -0.9063,-2.91947 2.01266,-8.16717 2.14886,-3.86323 2.55886,-4.44062 3.498221,-4.92638 1.18529,-0.61293 1.82484,-0.47466 2.93382,0.63433 1.17997,1.17996 1.31834,2.10121 0.55302,3.68193 -0.65185,1.34638 -5.207771,7.69267 -6.163891,8.58617 -0.9319,0.87086 -2.02507,0.94459 -2.83383,0.19112 z"
     id="path4-5"
     sodipodi:nodetypes="ssssssssscsscsccsssssss" /></svg>
